<?xml version="1.0" encoding="UTF-8"?>
<svg width="29px" height="42px" viewBox="0 0 29 42" version="1.1" xmlns="http://www.w3.org/2000/svg" xmlns:xlink="http://www.w3.org/1999/xlink">
    <!-- Generator: Sketch 42 (36781) - http://www.bohemiancoding.com/sketch -->
    <title>Leaf</title>
    <desc>Created with Sketch.</desc>
    <defs></defs>
    <g id="--Symbols" stroke="none" stroke-width="1" fill="none" fill-rule="evenodd">
        <g id="Desktop-HD" transform="translate(-1138.000000, -315.000000)" fill="#CE1E34">
            <g id="Pizza-Copy" transform="translate(975.000000, 248.000000)">
                <g id="Leaf" transform="translate(178.261914, 88.188936) scale(-1, 1) rotate(153.000000) translate(-178.261914, -88.188936) translate(163.761914, 65.188936)">
                    <path d="M17.239672,28.2250816 L17.239672,21.5161305 L26.3771289,29.4592006 C25.6262155,30.9159866 24.7207555,32.4128103 23.746798,33.8816399 L17.239672,28.2250816 Z M14.6537212,25.9771488 L14.6400058,25.9652262 L13.8067964,26.923724 L12.973587,25.9652262 L4.3963221,33.4213289 C3.47892074,32.0109491 2.63245326,30.5814324 1.93231172,29.192385 L14.0012522,18.7010151 L14.6537212,19.2681978 L14.6537212,25.9771488 Z M17.239672,8.94045597 C23.645524,10.3240624 28.4454589,16.0227715 28.4454589,22.8425654 C28.4454589,24.3768743 27.902813,26.1903605 27.0295101,28.115422 L17.239672,19.6052456 L17.239672,8.94045597 Z M14.6537212,8.62624152 L14.6537212,17.3573128 L14.6400058,17.3453902 L14.0012522,18.0801922 L13.3624985,17.3453902 L1.29208081,27.8380442 C0.491629667,26.016308 0,24.3029713 0,22.8425654 C0,14.9875689 6.36773287,8.61983602 14.2227294,8.61983602 C14.3669045,8.61983602 14.5105785,8.62198124 14.6537212,8.62624152 Z M14.6537212,27.8880338 L14.6537212,33.7350013 L14.6400058,33.7230786 L13.8067964,34.6815764 L12.973587,33.7230786 L7.80257972,38.2181667 C6.93238275,37.0788636 6.04824919,35.8692345 5.20296332,34.6310113 L13.8067964,27.1518133 L14.6537212,27.8880338 Z M17.239672,30.1359665 L22.9310782,35.0834305 C22.0721914,36.3211024 21.1805321,37.524695 20.3097981,38.6517539 L17.239672,35.982934 L17.239672,30.1359665 Z M14.6537212,45.4011387 C14.3771168,45.7050926 14.2227294,45.8697867 14.2227294,45.8697867 C14.2227294,45.8697867 11.6468891,43.1219858 8.68759395,39.3597205 L13.8067964,34.9096657 L14.6537212,35.6458862 L14.6537212,45.4011387 Z M17.239672,42.4458321 L17.239672,37.893819 L19.4189926,39.7882734 C18.6465417,40.7600546 17.9066645,41.656531 17.239672,42.4458321 Z" id="Combined-Shape"></path>
                    <rect id="Rectangle-4" x="12.929754" y="-8.52651283e-14" width="1.7239672" height="41.3752129"></rect>
                </g>
            </g>
        </g>
    </g>
</svg>