<?xml version="1.0" encoding="UTF-8"?>
<svg width="212" height="110" viewBox="0 0 245 127" version="1.1" xmlns="http://www.w3.org/2000/svg" xmlns:xlink="http://www.w3.org/1999/xlink">
    <!-- Generator: Sketch 41.2 (35397) - http://www.bohemiancoding.com/sketch -->
    <title>Pizza</title>
    <desc>Created with Sketch.</desc>
    <defs>
        <path d="M6.57473944,11 L4.00076255,8.51433941 C2.81031561,7.36473816 2.78063707,5.46419886 3.9292428,4.27478281 C5.08019047,3.08294161 6.98468501,3.05489829 8.16871277,4.19830061 L11,6.9324429 L11,2.99649048 C11,1.34157448 12.3465171,0 14,0 C15.6568542,0 17,1.3504982 17,2.99649048 L17,6.18473281 L19.1333505,3.81540702 C20.2407055,2.58556476 22.1390512,2.48957644 23.3678285,3.59597244 C24.5991112,4.70462433 24.6936033,6.60698001 23.5922195,7.83019066 L20.7381103,11 L25.0035095,11 C26.6584255,11 28,12.3465171 28,14 C28,15.6568542 26.6495018,17 25.0035095,17 L21.4252606,17 L23.9992375,19.4856606 C25.1896844,20.6352618 25.2193629,22.5358011 24.0707572,23.7252172 C22.9198095,24.9170584 21.015315,24.9451017 19.8312872,23.8016994 L17,21.0675571 L17,25.0035095 C17,26.6584255 15.6534829,28 14,28 C12.3431458,28 11,26.6495018 11,25.0035095 L11,21.8152672 L8.86664948,24.184593 C7.75929454,25.4144352 5.86094876,25.5104236 4.63217151,24.4040276 C3.40088885,23.2953757 3.30639671,21.39302 4.40778053,20.1698093 L7.26188968,17 L2.99649048,17 C1.34157448,17 0,15.6534829 0,14 C0,12.3431458 1.3504982,11 2.99649048,11 L6.57473944,11 Z M14,19 C16.7614237,19 19,16.7614237 19,14 C19,11.2385763 16.7614237,9 14,9 C11.2385763,9 9,11.2385763 9,14 C9,16.7614237 11.2385763,19 14,19 Z" id="path-1"></path>
        <mask id="mask-2" maskContentUnits="userSpaceOnUse" maskUnits="objectBoundingBox" x="0" y="0" width="28" height="28" fill="white">
            <use xlink:href="#path-1"></use>
        </mask>
    </defs>
    <g id="Desktop-HD" stroke="none" stroke-width="1" fill="none" fill-rule="evenodd">
        <g transform="translate(-2.000000, -3.000000)" id="Navbar">
            <g transform="translate(0.000000, 1.000000)">
                <g id="Pizza" transform="translate(5.000000, 5.750000)">
                    <g>
                        <path d="M239,119.5 C239,53.5019724 185.498028,0 119.5,0 C53.5019724,0 0,53.5019724 0,119.5" id="Oval" stroke="#E6EAEC" stroke-width="6" fill-opacity="0" fill="#D8D8D8"></path>
                        <path d="M217,119 C217,65.4283793 173.571621,22 120,22 C66.4283793,22 23,65.4283793 23,119" id="Oval-Copy" stroke="#E6EAEC" stroke-width="6" fill-opacity="0" fill="#D8D8D8"></path>
                        <g id="Tomatoe" transform="translate(105.000000, 45.000000)" fill="#CE1E34">
                            <path d="M15,30 C23.2842712,30 30,23.2842712 30,15 C30,6.71572875 23.2842712,0 15,0 C6.71572875,0 0,6.71572875 0,15 C0,23.2842712 6.71572875,30 15,30 Z M14.5,13 L19,4 L10,4 L14.5,13 Z M13.0259284,13.9208382 L8.234654,5.07246607 L3.07246607,12.4448345 L13.0259284,13.9208382 Z M13.052224,15.1109546 L3,14.6606298 L6.66062979,22.8825389 L13.052224,15.1109546 Z M16.1229144,13.2978386 L21.5197487,4.80524303 L26.1550914,12.5197487 L16.1229144,13.2978386 Z M16.1816433,14.9357887 L26.2348639,15.3632866 L21.8715774,23.2348639 L16.1816433,14.9357887 Z M14.6563863,16.0785358 L18.9986293,25.1557009 L10,24.9986293 L14.6563863,16.0785358 Z" id="Combined-Shape"></path>
                        </g>
                        <g id="Leaf" transform="translate(178.261914, 88.188936) scale(-1, 1) rotate(153.000000) translate(-178.261914, -88.188936) translate(163.761914, 65.188936)" fill="#E6EAEC">
                            <path d="M17.239672,28.2250816 L23.746798,33.8816399 C24.7207555,32.4128103 25.6262155,30.9159866 26.3771289,29.4592006 L17.239672,21.5161305 L17.239672,28.2250816 Z M14.6537212,25.9771488 L14.6400058,25.9652262 L13.8067964,26.923724 L12.973587,25.9652262 L4.3963221,33.4213289 C3.47892074,32.0109491 2.63245326,30.5814324 1.93231172,29.192385 L14.0012522,18.7010151 L14.6537212,19.2681978 L14.6537212,25.9771488 Z M17.239672,8.94045597 C23.645524,10.3240624 28.4454589,16.0227715 28.4454589,22.8425654 C28.4454589,24.3768743 27.902813,26.1903605 27.0295101,28.115422 L17.239672,19.6052456 L17.239672,8.94045597 Z M14.6537212,8.62624152 C14.5105785,8.62198124 14.3669045,8.61983602 14.2227294,8.61983602 C6.36773287,8.61983602 1.42108547e-13,14.9875689 1.42108547e-13,22.8425654 C1.42108547e-13,24.3029713 0.491629667,26.016308 1.29208081,27.8380442 L13.3624985,17.3453902 L14.0012522,18.0801922 L14.6400058,17.3453902 L14.6537212,17.3573128 L14.6537212,8.62624152 Z M14.6537212,27.8880338 L13.8067964,27.1518133 L5.20296332,34.6310113 C6.04824919,35.8692345 6.93238275,37.0788636 7.80257972,38.2181667 L12.973587,33.7230786 L13.8067964,34.6815764 L14.6400058,33.7230786 L14.6537212,33.7350013 L14.6537212,27.8880338 Z M17.239672,30.1359665 L22.9310782,35.0834305 C22.0721914,36.3211024 21.1805321,37.524695 20.3097981,38.6517539 L17.239672,35.982934 L17.239672,30.1359665 Z M14.6537212,45.4011387 C14.3771168,45.7050926 14.2227294,45.8697867 14.2227294,45.8697867 C14.2227294,45.8697867 11.6468891,43.1219858 8.68759395,39.3597205 L13.8067964,34.9096657 L14.6537212,35.6458862 L14.6537212,45.4011387 Z M17.239672,42.4458321 C17.9066645,41.656531 18.6465417,40.7600546 19.4189926,39.7882734 L17.239672,37.893819 L17.239672,42.4458321 Z" id="Combined-Shape"></path>
                            <rect id="Rectangle-4" x="12.929754" y="-8.52651283e-14" width="1.7239672" height="41.3752129"></rect>
                        </g>
                        <path d="M0,120 L239,120" id="Line" stroke="#E6EAEC" stroke-width="6" stroke-linecap="square"></path>
                        <path d="M171.005692,38.9993608 L121.195234,116.593039 C121.195234,116.593039 68.5680089,36.1711034 68.5680089,36.1711034" id="Path-2" stroke="#E6EAEC" stroke-width="5"></path>
                        <g id="Flower" transform="translate(50.000000, 68.000000)" stroke="#E6EAEC">
                            <use id="Combined-Shape" mask="url(#mask-2)" stroke-width="4" fill-opacity="0" fill="#FFFFFF" xlink:href="#path-1"></use>
                            <g id="Stem" transform="translate(16.000000, 16.500000)">
                                <path d="M2.05702021,1.33509546 C2.05702021,1.33509546 10.7318288,1.62364608 15.4125372,8.29796344 C20.0932457,14.9722808 19.1902076,22.2083607 19.1902076,22.2083607" id="Path-3" stroke-width="2" stroke-linecap="round" transform="translate(10.658616, 11.771728) rotate(10.000000) translate(-10.658616, -11.771728) "></path>
                                <path d="M16.2921785,9.01950494 C15.9981328,8.47667448 14.8681775,5.89948268 15.5946878,3.75279299 C16.1767863,2.03281081 17.9267104,0.458478362 17.9267104,0.458478362 C17.9267104,0.458478362 20.9338869,2.26018331 20.9338868,6.56797925 C20.9338868,10.8757752 17.9267104,15.2487556 17.9267104,15.2487556" id="Path-4" stroke-linejoin="round"></path>
                                <path d="M13.8302696,21.8089243 C12.5570801,20.4227715 10.7988085,17.9890618 10.8604675,16.0319095 C10.9221264,14.0747573 12.5777017,11.5559202 12.5777017,11.5559202 C12.5777017,11.5559202 16.1784826,14.8377541 16.6694654,17.908537 C17.1604481,20.9793199 16.1255875,22.6690155 16.1255875,22.6690155" id="Path-4-Copy" stroke-linejoin="round" transform="translate(13.830270, 17.112468) scale(-1, 1) rotate(58.000000) translate(-13.830270, -17.112468) "></path>
                            </g>
                        </g>
                    </g>
                </g>
            </g>
        </g>
    </g>
</svg>
